# xmcd
#
# Track frame offsets: 
#        182
#        21330
#        45907
#        62832
#        82460
#        103477
#        122492
#        146222
#        166767
#        182395
#        196835
#
# Disc length: 2883 seconds
#
# Revision: 2
# Processed by: cddbd v1.5.2PL0 Copyright (c) Steve Scherf et al.
# Submitted via: ExactAudioCopy v0.95a5
#
DISCID=970b410b
DTITLE=Colin James - Bad Habits
DYEAR=1995
DGENRE=Blues
TTITLE0=Saviour
TTITLE1=Freedom
TTITLE2=Standin' on the Edge
TTITLE3=Real Stuff
TTITLE4=Better Days
TTITLE5=I Can't Hold Out
TTITLE6=Bad Habits
TTITLE7=Forty-Four
TTITLE8=Walkin' Blues
TTITLE9=Atlanta Moan
TTITLE10=Speechless
EXTD=
EXTT0=
EXTT1=
EXTT2=
EXTT3=
EXTT4=
EXTT5=
EXTT6=
EXTT7=
EXTT8=
EXTT9=
EXTT10=
PLAYORDER=
